<svg width="16" height="16" viewBox="0 0 16 16" fill="none" xmlns="http://www.w3.org/2000/svg">
<path d="M8.00002 9.99999L6.00002 7.99999M8.00002 9.99999C8.93125 9.64582 9.82461 9.19914 10.6667 8.66666M8.00002 9.99999V13.3333C8.00002 13.3333 10.02 12.9667 10.6667 12C11.3867 10.92 10.6667 8.66666 10.6667 8.66666M6.00002 7.99999C6.35478 7.07961 6.80149 6.19737 7.33335 5.36666C8.11014 4.12465 9.19177 3.10202 10.4754 2.39605C11.7589 1.69008 13.2018 1.32424 14.6667 1.33333C14.6667 3.14666 14.1467 6.33333 10.6667 8.66666M6.00002 7.99999H2.66669C2.66669 7.99999 3.03335 5.97999 4.00002 5.33333C5.08002 4.61333 7.33335 5.33333 7.33335 5.33333M3.00002 11C2.00002 11.84 1.66669 14.3333 1.66669 14.3333C1.66669 14.3333 4.16002 14 5.00002 13C5.47335 12.44 5.46669 11.58 4.94002 11.06C4.68089 10.8127 4.33955 10.6697 3.9815 10.6587C3.62346 10.6476 3.27394 10.7692 3.00002 11Z" stroke="#CDD6F4" stroke-linecap="round" stroke-linejoin="round"/>
</svg>
