<?xml version="1.0" encoding="UTF-8" standalone="no"?>
<svg viewBox="0 0 50 50"
 xmlns="http://www.w3.org/2000/svg" xmlns:xlink="http://www.w3.org/1999/xlink" version="1.2" baseProfile="tiny">
<title>Qt SVG Document</title>
<desc>Generated with Qt</desc>
<defs>
</defs>
<g fill="none" stroke="black" stroke-width="1" fill-rule="evenodd" stroke-linecap="square" stroke-linejoin="bevel" >

<g fill="#f38ba8" fill-opacity="1" stroke="none" transform="matrix(2.69966,0,0,2.69966,-117.857,-7.14286)"
font-family="Noto Sans" font-size="10" font-weight="400" font-style="normal" 
>
<circle cx="52.9167" cy="11.9063" r="9.26042"/>
</g>

<g fill="#000000" fill-opacity="1" stroke="none" transform="matrix(2.69966,0,0,2.69966,-117.857,-7.14286)"
font-family="Noto Sans" font-size="10" font-weight="400" font-style="normal" 
opacity="0.3" >
<circle cx="52.9167" cy="11.9063" r="9.26042"/>
</g>

<g fill="#1e1e2e" fill-opacity="1" stroke="none" transform="matrix(1.9071,1.9108,-1.92113,1.89669,-117.857,-7.14286)"
font-family="Noto Sans" font-size="10" font-weight="400" font-style="normal" 
>
<path vector-effect="none" fill-rule="evenodd" d="M38.7566,-29.0718 C38.7566,-29.8177 39.3614,-30.4225 40.1074,-30.4225 L51.1943,-30.4225 C51.9402,-30.4225 52.545,-29.8177 52.545,-29.0718 L52.545,-29.0154 C52.545,-28.2695 51.9402,-27.6647 51.1943,-27.6647 L40.1074,-27.6647 C39.3614,-27.6647 38.7566,-28.2695 38.7566,-29.0154 L38.7566,-29.0718"/>
</g>

<g fill="#1e1e2e" fill-opacity="1" stroke="none" transform="matrix(-1.9071,1.9108,1.92113,1.89669,-117.857,-7.14286)"
font-family="Noto Sans" font-size="10" font-weight="400" font-style="normal" 
>
<path vector-effect="none" fill-rule="evenodd" d="M-35.5993,45.8373 C-35.5993,45.0913 -34.9946,44.4866 -34.2486,44.4866 L-23.1617,44.4866 C-22.4157,44.4866 -21.811,45.0913 -21.811,45.8373 L-21.811,45.8936 C-21.811,46.6396 -22.4157,47.2444 -23.1617,47.2444 L-34.2486,47.2444 C-34.9946,47.2444 -35.5993,46.6396 -35.5993,45.8936 L-35.5993,45.8373"/>
</g>

<g fill="none" stroke="#000000" stroke-opacity="1" stroke-width="1" stroke-linecap="square" stroke-linejoin="bevel" transform="matrix(1,0,0,1,0,0)"
font-family="Noto Sans" font-size="10" font-weight="400" font-style="normal" 
>
</g>
</g>
</svg>
