<svg width="16" height="16" viewBox="0 0 16 16" fill="none" xmlns="http://www.w3.org/2000/svg">
<path d="M6.33331 14.6667H9.66665M9.99998 10.2176C11.5766 9.46861 12.6666 7.86161 12.6666 6.00001C12.6666 3.42268 10.5773 1.33334 7.99998 1.33334C5.42265 1.33334 3.33331 3.42268 3.33331 6.00001C3.33331 7.86161 4.42335 9.46861 5.99998 10.2176V10.6667C5.99998 11.2879 5.99998 11.5986 6.10147 11.8436C6.2368 12.1703 6.49636 12.4299 6.82307 12.5652C7.0681 12.6667 7.37872 12.6667 7.99998 12.6667C8.62124 12.6667 8.93186 12.6667 9.17689 12.5652C9.50359 12.4299 9.76316 12.1703 9.89849 11.8436C9.99998 11.5986 9.99998 11.2879 9.99998 10.6667V10.2176Z" stroke="#CDD6F4" stroke-linecap="round" stroke-linejoin="round"/>
</svg>
