<svg width="17" height="16" viewBox="0 0 17 16" fill="none" xmlns="http://www.w3.org/2000/svg">
<path d="M5.16667 11.3333L5.49035 12.9517C5.61252 13.5626 5.67361 13.8681 5.8331 14.0965C5.97374 14.298 6.16731 14.4567 6.39246 14.5551C6.64777 14.6667 6.95927 14.6667 7.58225 14.6667H9.41775C10.0407 14.6667 10.3522 14.6667 10.6075 14.5551C10.8327 14.4567 11.0263 14.298 11.1669 14.0965C11.3264 13.8681 11.3875 13.5626 11.5097 12.9517L11.8333 11.3333M5.16667 4.66668L5.49035 3.0483C5.61252 2.43741 5.67361 2.13197 5.8331 1.90349C5.97374 1.70202 6.16731 1.54332 6.39246 1.44493C6.64777 1.33334 6.95927 1.33334 7.58225 1.33334H9.41775C10.0407 1.33334 10.3522 1.33334 10.6075 1.44493C10.8327 1.54332 11.0263 1.70202 11.1669 1.90349C11.3264 2.13197 11.3875 2.43741 11.5097 3.0483L11.8333 4.66668M8.5 6.00001V8.00001L9.5 9.00001M13.1667 8.00001C13.1667 10.5773 11.0773 12.6667 8.5 12.6667C5.92267 12.6667 3.83334 10.5773 3.83334 8.00001C3.83334 5.42268 5.92267 3.33334 8.5 3.33334C11.0773 3.33334 13.1667 5.42268 13.1667 8.00001Z" stroke="#CDD6F4" stroke-linecap="round" stroke-linejoin="round"/>
</svg>
