<svg width="16" height="16" viewBox="0 0 16 16" fill="none" xmlns="http://www.w3.org/2000/svg">
<g clip-path="url(#clip0_31_1925)">
<path d="M14.6671 8.0781C14.6671 4.35307 11.6473 1.33334 7.9223 1.33334C4.89895 1.33334 2.34022 3.32258 1.48352 6.06361C1.42864 6.2392 1.4012 6.32699 1.40379 6.43677C1.4059 6.52604 1.43303 6.63632 1.47259 6.71637C1.52123 6.81482 1.59634 6.88993 1.74655 7.04013L8.96055 14.2538C9.11076 14.404 9.18587 14.4791 9.28432 14.5278C9.36438 14.5673 9.47466 14.5944 9.56393 14.5965C9.67371 14.5991 9.7615 14.5717 9.93709 14.5168C12.678 13.66 14.6671 11.1013 14.6671 8.0781Z" stroke="#CBA6F7" stroke-linecap="round" stroke-linejoin="round"/>
<path d="M2.29784 6.48941C2.45818 6.478 2.62007 6.47221 2.78331 6.47221C6.50833 6.47221 9.52806 9.49194 9.52806 13.217C9.52806 13.3802 9.52226 13.5421 9.51086 13.7024C9.49094 13.9826 9.48097 14.1226 9.39932 14.2091C9.333 14.2794 9.21983 14.3216 9.12369 14.312C9.00533 14.3001 8.89769 14.1925 8.6824 13.9772L2.02307 7.31787C1.80778 7.10258 1.70014 6.99494 1.68828 6.87657C1.67865 6.78044 1.72089 6.66727 1.79115 6.60095C1.87765 6.51929 2.01772 6.50933 2.29784 6.48941Z" stroke="#CBA6F7" stroke-linecap="round" stroke-linejoin="round"/>
</g>
<defs>
<clipPath id="clip0_31_1925">
<rect width="16" height="16" fill="white"/>
</clipPath>
</defs>
</svg>
